<!-- Generated by IcoMoon.io -->
<svg version="1.1" xmlns="http://www.w3.org/2000/svg" width="64" height="32" viewBox="0 0 64 32">
<title>Logo5</title>
<path d="M16.155 27.062c0.147 0.167 0.225 0.376 0.222 0.59 0.001 0.013 0.001 0.029 0.001 0.045 0 0.132-0.030 0.257-0.082 0.369l0.002-0.005c-0.064 0.134-0.153 0.247-0.263 0.335l-0.002 0.001c-0.25 0.172-0.559 0.275-0.893 0.275-0.037 0-0.073-0.001-0.109-0.004l0.005 0h-1.753v-3.737h1.717c0.030-0.002 0.066-0.003 0.102-0.003 0.316 0 0.61 0.094 0.856 0.255l-0.006-0.004c0.111 0.085 0.199 0.193 0.257 0.314 0.058 0.122 0.084 0.254 0.077 0.386 0.010 0.205-0.060 0.408-0.199 0.571-0.133 0.149-0.318 0.251-0.523 0.292 0.232 0.039 0.443 0.152 0.592 0.32zM14.099 26.498h0.734c0.167 0.011 0.332-0.033 0.467-0.124 0.053-0.044 0.096-0.1 0.124-0.163l0.001-0.003c0.022-0.048 0.034-0.105 0.034-0.164 0-0.012-0.001-0.025-0.002-0.037l0 0.002c0.001-0.009 0.001-0.020 0.001-0.032 0-0.060-0.013-0.118-0.035-0.17l0.001 0.003c-0.029-0.066-0.070-0.122-0.122-0.166l-0.001-0c-0.118-0.080-0.265-0.128-0.422-0.128-0.021 0-0.041 0.001-0.061 0.002l0.003-0h-0.723v0.981zM15.371 27.932c0.057-0.045 0.103-0.103 0.134-0.169l0.001-0.003c0.025-0.052 0.039-0.114 0.039-0.179 0-0.010-0-0.021-0.001-0.031l0 0.001c0.001-0.008 0.001-0.018 0.001-0.027 0-0.067-0.015-0.13-0.042-0.187l0.001 0.003c-0.033-0.069-0.080-0.126-0.137-0.171l-0.001-0.001c-0.126-0.086-0.282-0.137-0.45-0.137-0.017 0-0.034 0.001-0.051 0.002l0.002-0h-0.77v1.028h0.78c0.175 0.009 0.349-0.036 0.493-0.13zM19.665 28.67l-0.955-1.461h-0.359v1.461h-0.822v-3.739h1.556c0.033-0.002 0.071-0.004 0.11-0.004 0.366 0 0.704 0.121 0.977 0.325l-0.004-0.003c0.217 0.203 0.349 0.47 0.37 0.753 0.002 0.023 0.003 0.051 0.003 0.078 0 0.272-0.097 0.522-0.258 0.717l0.002-0.002c-0.193 0.199-0.449 0.336-0.735 0.379l-0.007 0.001 1.017 1.494h-0.894zM18.351 26.699h0.672c0.467 0 0.7-0.188 0.7-0.566 0.001-0.009 0.001-0.020 0.001-0.031 0-0.071-0.014-0.138-0.040-0.2l0.001 0.003c-0.032-0.076-0.077-0.14-0.133-0.193l-0-0c-0.128-0.096-0.289-0.154-0.464-0.154-0.023 0-0.046 0.001-0.068 0.003l0.003-0h-0.68l0.008 1.137zM24.157 27.917h-1.637l-0.289 0.752h-0.862l1.503-3.696h0.932l1.497 3.696h-0.861l-0.283-0.752zM23.938 27.351l-0.598-1.578-0.598 1.578h1.197zM29.779 28.67h-0.815l-1.829-2.542v2.542h-0.814v-3.739h0.814l1.829 2.557v-2.557h0.815v3.739zM34.435 27.775c-0.169 0.282-0.426 0.511-0.738 0.659-0.317 0.149-0.689 0.236-1.081 0.236-0.023 0-0.047-0-0.070-0.001l0.003 0h-1.451v-3.739h1.452c0.020-0.001 0.043-0.001 0.067-0.001 0.391 0 0.763 0.085 1.097 0.238l-0.017-0.007c0.312 0.145 0.569 0.372 0.738 0.652 0.168 0.304 0.255 0.64 0.255 0.981s-0.088 0.676-0.255 0.981zM33.502 27.685c0.221-0.232 0.358-0.546 0.36-0.892v-0c0-0.327-0.128-0.644-0.36-0.892-0.253-0.2-0.576-0.321-0.928-0.321-0.033 0-0.065 0.001-0.098 0.003l0.004-0h-0.566v2.42h0.566c0.028 0.002 0.061 0.003 0.094 0.003 0.352 0 0.675-0.121 0.931-0.323l-0.003 0.002zM24.668 4.138s10.529 3.64 10.306 8.906v8.909s-10.521-3.641-10.302-8.908l-0.004-8.906zM44.353 19.867c1.989-1.253 4.289-2.029 6.69-2.258v-2.788c-2.767 0.976-5.114 2.747-6.69 5.046z"></path>
<path d="M43.159 20.707c1.627-3.001 4.449-5.316 7.884-6.47v-8.035s-14.995 5.184-14.678 12.684v12.683s0.668-0.232 1.72-0.667c0-0.406 0-0.814 0.048-1.226 0.31-3.482 2.117-6.708 5.026-8.97z"></path>
<path d="M41.733 25.419c0.088-0.959 0.273-1.841 0.548-2.682l-0.024 0.086c-1.81 1.953-2.907 4.377-3.135 6.931-0.022 0.241-0.034 0.482-0.040 0.731 1.251-0.547 2.198-1.013 3.126-1.51l-0.242 0.118c-0.266-1.208-0.344-2.445-0.233-3.673zM42.329 25.465c-0.029 0.308-0.046 0.667-0.046 1.029 0 0.813 0.084 1.606 0.245 2.371l-0.013-0.075c4.097-2.245 8.7-5.713 8.522-9.904v-0.365c-2.927 0.3-5.665 1.471-7.795 3.335-0.47 1.055-0.794 2.279-0.91 3.564l-0.003 0.045z"></path>
</svg>
