<!-- Generated by IcoMoon.io -->
<svg version="1.1" xmlns="http://www.w3.org/2000/svg" width="64" height="32" viewBox="0 0 64 32">
<title>Logo2</title>
<path d="M30.258 3.635h-0.083c-0.127-0.007-0.254-0.010-0.38-0.013h-0.275c-0.24 0-0.484 0.006-0.727 0.018-0.008-0.001-0.018-0.001-0.027-0.001s-0.019 0-0.029 0.001l0.001-0c-2.331 0.136-4.495 0.719-6.452 1.664l0.102-0.044-0.261 0.126v13.369l0.611-0.208c0.536-0.184 1.107-0.35 1.698-0.504 1.46-0.391 3.141-0.626 4.873-0.649l0.014-0v1.757c-0.219 0.001-0.43 0.007-0.643 0.018h-0.051c-1.372 0.077-2.658 0.283-3.896 0.608l0.136-0.030c-1.701 0.433-3.193 1.031-4.578 1.796l0.098-0.050v-17.145c1.353-0.804 2.918-1.46 4.576-1.885l0.124-0.027c1.328-0.357 2.853-0.565 4.426-0.571h0.262c0.309 0.008 0.61 0.022 0.892 0.043 0.814 0.059 1.567 0.184 2.295 0.371l-0.088-0.019v1.729c-0.616-0.151-1.346-0.265-2.093-0.32l-0.044-0.003-0.044-0.004c-0.149-0.013-0.298-0.026-0.437-0.026zM33.3 5.403c0.383 0.030 0.781 0.043 1.182 0.043 1.657-0.006 3.261-0.224 4.789-0.627l-0.132 0.030c1.701-0.434 3.191-1.032 4.577-1.797l-0.099 0.050v16.839c-1.353 0.804-2.919 1.459-4.576 1.884l-0.125 0.027c-1.328 0.356-2.853 0.563-4.426 0.57h-0.004c-0.032 0-0.069 0-0.107 0-1.155 0-2.276-0.145-3.347-0.417l0.094 0.020v-16.948c0.26 0.059 0.527 0.115 0.799 0.161 0.446 0.075 0.917 0.13 1.375 0.164zM41.87 5.534l-0.611 0.205c-0.562 0.189-1.129 0.358-1.698 0.508-1.521 0.407-3.269 0.644-5.071 0.651h-0.004c-0.398 0-0.765-0.011-1.119-0.034l-0.487-0.032v13.752l0.418 0.036c0.388 0.034 0.788 0.051 1.191 0.051 1.423-0.006 2.799-0.195 4.11-0.543l-0.113 0.026c1.198-0.304 2.238-0.689 3.224-1.167l-0.1 0.044 0.261-0.126v-13.372z"></path>
<path d="M21.577 27.351c-0.164-0.17-0.394-0.276-0.649-0.276-0.011 0-0.022 0-0.033 0.001l0.002-0c-0.004-0-0.009-0-0.013-0-0.137 0-0.267 0.027-0.386 0.076l0.007-0.002c-0.232 0.093-0.412 0.275-0.5 0.502l-0.002 0.006c-0.048 0.121-0.072 0.249-0.070 0.379v2.291c-0 0.011-0.001 0.024-0.001 0.037 0 0.157 0.033 0.306 0.093 0.44l-0.003-0.007c0.054 0.118 0.132 0.222 0.229 0.307 0.091 0.077 0.199 0.133 0.314 0.163 0.112 0.031 0.227 0.047 0.342 0.047 0.127 0.001 0.254-0.026 0.369-0.080 0.344-0.153 0.579-0.491 0.58-0.884v-0.256h-0.6v0.204c0 0.004 0 0.009 0 0.014 0 0.068-0.013 0.134-0.036 0.194l0.001-0.004c-0.020 0.051-0.050 0.094-0.087 0.129l-0 0c-0.069 0.053-0.156 0.086-0.25 0.088h-0c-0.010 0.001-0.023 0.002-0.035 0.002-0.101 0-0.19-0.049-0.245-0.124l-0.001-0.001c-0.050-0.081-0.080-0.179-0.080-0.284 0-0.008 0-0.016 0.001-0.024l-0 0.001v-2.136c-0.004-0.118 0.022-0.235 0.074-0.342 0.055-0.085 0.15-0.14 0.257-0.14 0.012 0 0.025 0.001 0.037 0.002l-0.001-0c0.003-0 0.007-0 0.011-0 0.105 0 0.198 0.051 0.256 0.129l0.001 0.001c0.062 0.081 0.099 0.183 0.099 0.294 0 0.005-0 0.009-0 0.014v-0.001 0.198h0.593v-0.234c0-0.003 0-0.007 0-0.010 0-0.141-0.027-0.275-0.076-0.398l0.003 0.007c-0.047-0.125-0.115-0.233-0.201-0.323l0 0zM25.134 27.324c-0.183-0.155-0.421-0.25-0.681-0.252h-0c-0.122 0.001-0.243 0.022-0.357 0.065-0.247 0.089-0.442 0.271-0.546 0.502l-0.002 0.006c-0.060 0.139-0.091 0.291-0.088 0.444v2.197c-0.004 0.155 0.026 0.308 0.088 0.45 0.054 0.118 0.133 0.223 0.232 0.308 0.092 0.085 0.199 0.15 0.316 0.193 0.106 0.040 0.229 0.064 0.357 0.064 0.262 0 0.501-0.097 0.683-0.258l-0.001 0.001c0.095-0.086 0.172-0.191 0.226-0.308 0.062-0.141 0.091-0.295 0.088-0.45v-2.197c0-0.006 0-0.012 0-0.019 0-0.153-0.032-0.299-0.090-0.431l0.003 0.007c-0.056-0.125-0.132-0.232-0.225-0.321l-0-0zM24.855 30.286c0.001 0.010 0.001 0.022 0.001 0.034 0 0.112-0.046 0.212-0.12 0.284l-0 0c-0.076 0.064-0.174 0.103-0.282 0.103s-0.206-0.039-0.283-0.103l0.001 0.001c-0.074-0.072-0.121-0.172-0.121-0.283 0-0.012 0.001-0.025 0.002-0.037l-0 0.002v-2.197c-0.001-0.010-0.001-0.022-0.001-0.034 0-0.111 0.046-0.212 0.12-0.284l0-0c0.076-0.064 0.174-0.103 0.282-0.103s0.206 0.039 0.283 0.103l-0.001-0.001c0.074 0.072 0.12 0.172 0.12 0.284 0 0.012-0.001 0.024-0.002 0.035l0-0.002v2.198zM29.806 31.267v-4.159h-0.575l-0.757 2.201h-0.010l-0.763-2.201h-0.569v4.159h0.594v-2.53h0.011l0.581 1.788h0.296l0.586-1.788h0.011v2.53h0.594zM33.182 27.399c-0.091-0.103-0.207-0.181-0.336-0.227-0.121-0.041-0.261-0.064-0.407-0.064-0.009 0-0.017 0-0.026 0l0.001-0h-0.883v4.159h0.593v-1.624h0.305c0.185 0.008 0.369-0.030 0.535-0.113 0.136-0.077 0.246-0.184 0.323-0.314l0.002-0.004c0.068-0.11 0.115-0.234 0.136-0.362 0.023-0.156 0.034-0.314 0.032-0.473 0.006-0.199-0.014-0.399-0.058-0.594-0.042-0.15-0.118-0.278-0.219-0.382l0 0zM32.877 28.668c-0.003 0.079-0.023 0.154-0.056 0.22l0.001-0.003c-0.034 0.064-0.087 0.114-0.151 0.145l-0.002 0.001c-0.073 0.034-0.159 0.053-0.249 0.053-0.011 0-0.021-0-0.032-0.001l0.002 0h-0.27v-1.414h0.306c0.009-0 0.019-0.001 0.029-0.001 0.087 0 0.169 0.019 0.242 0.054l-0.003-0.001c0.061 0.036 0.109 0.089 0.138 0.152l0.001 0.002c0.033 0.072 0.050 0.152 0.052 0.231v0.277c0 0.097 0.006 0.197 0 0.286h-0.006zM35.99 27.108h-0.486l-0.917 4.159h0.593l0.174-0.894h0.808l0.174 0.894h0.592l-0.939-4.159zM35.443 29.807l0.292-1.508h0.011l0.29 1.508h-0.592zM39.819 29.614h-0.011l-0.895-2.506h-0.57v4.159h0.592v-2.501h0.012l0.906 2.501h0.558v-4.159h-0.592v2.506zM43.44 27.108l-0.477 1.653h-0.012l-0.477-1.653h-0.627l0.814 2.401v1.758h0.593v-1.758l0.814-2.401h-0.628z"></path>
</svg>
