<!-- Generated by IcoMoon.io -->
<svg version="1.1" xmlns="http://www.w3.org/2000/svg" width="64" height="32" viewBox="0 0 64 32">
<title>Logo6</title>
<path d="M32.257 16.601c-0.23-0.297-0.369-0.675-0.369-1.085 0-0.041 0.001-0.081 0.004-0.121l-0 0.005v-1.741c0-0.533 0.121-0.939 0.363-1.217 0.242-0.278 0.657-0.415 1.247-0.414 0.554 0 0.947 0.118 1.179 0.354 0.254 0.301 0.377 0.67 0.349 1.041v0.409h-0.99v-0.415c0.003-0.135-0.006-0.271-0.029-0.405-0.017-0.098-0.068-0.182-0.141-0.24l-0.001-0.001c-0.089-0.060-0.198-0.095-0.316-0.095-0.015 0-0.030 0.001-0.045 0.002l0.002-0c-0.013-0.001-0.028-0.002-0.043-0.002-0.125 0-0.24 0.038-0.337 0.102l0.002-0.001c-0.082 0.066-0.141 0.158-0.164 0.263l-0.001 0.003c-0.025 0.119-0.040 0.256-0.040 0.397 0 0.012 0 0.023 0 0.035l-0-0.002v2.113c-0.016 0.203 0.028 0.408 0.127 0.593 0.051 0.064 0.118 0.113 0.195 0.143l0.003 0.001c0.080 0.031 0.169 0.043 0.256 0.033 0.012 0.001 0.027 0.002 0.042 0.002 0.115 0 0.222-0.036 0.31-0.098l-0.002 0.001c0.076-0.064 0.13-0.153 0.148-0.254l0-0.003c0.020-0.114 0.031-0.246 0.031-0.38 0-0.015-0-0.030-0-0.045l0 0.002v-0.429h0.991v0.391c0.002 0.031 0.003 0.067 0.003 0.103 0 0.376-0.13 0.722-0.348 0.994l0.002-0.003c-0.228 0.258-0.616 0.388-1.186 0.388s-1.001-0.138-1.245-0.425zM36.382 16.618c-0.251-0.27-0.376-0.665-0.376-1.188v-1.831c0-0.517 0.125-0.909 0.376-1.174s0.668-0.398 1.255-0.397c0.583 0 0.999 0.133 1.249 0.397 0.25 0.266 0.377 0.657 0.377 1.174v1.831c0 0.517-0.127 0.914-0.382 1.187s-0.668 0.409-1.245 0.409-1.003-0.138-1.256-0.408zM38.098 16.179c0.090-0.17 0.13-0.356 0.119-0.542v-2.242c0.001-0.018 0.002-0.039 0.002-0.060 0-0.172-0.044-0.335-0.121-0.476l0.003 0.005c-0.052-0.065-0.121-0.115-0.199-0.144l-0.003-0.001c-0.058-0.023-0.124-0.036-0.194-0.036-0.024 0-0.047 0.002-0.070 0.004l0.003-0c-0.020-0.003-0.043-0.004-0.067-0.004-0.070 0-0.137 0.013-0.199 0.037l0.004-0.001c-0.082 0.031-0.151 0.081-0.203 0.145l-0.001 0.001c-0.091 0.166-0.131 0.349-0.119 0.531v2.253c-0.012 0.187 0.028 0.373 0.119 0.542 0.057 0.057 0.129 0.103 0.209 0.134 0.075 0.030 0.163 0.048 0.255 0.048s0.179-0.018 0.259-0.050l-0.005 0.002c0.081-0.032 0.151-0.077 0.209-0.134l-0 0v-0.011zM40.455 12.082h1.066l0.802 3.379 0.821-3.378h1.037l0.105 4.876h-0.767l-0.082-3.389-0.792 3.389h-0.616l-0.82-3.402-0.076 3.402h-0.775l0.097-4.876zM45.482 12.082h1.662c0.957 0 1.436 0.462 1.436 1.385 0 0.884-0.504 1.326-1.512 1.325h-0.566v2.168h-1.026l0.006-4.877zM46.902 14.166c0.101 0.011 0.204 0.004 0.302-0.024 0.097-0.027 0.187-0.071 0.262-0.13 0.118-0.165 0.17-0.358 0.148-0.551 0.001-0.016 0.001-0.035 0.001-0.054 0-0.138-0.018-0.272-0.053-0.4l0.002 0.011c-0.016-0.052-0.042-0.097-0.076-0.134l0 0c-0.036-0.040-0.079-0.073-0.127-0.097l-0.002-0.001c-0.119-0.050-0.258-0.080-0.404-0.080-0.019 0-0.038 0.001-0.056 0.001l0.003-0h-0.398v1.457h0.398zM50.059 12.082h1.101l1.13 4.877h-0.956l-0.223-1.124h-0.982l-0.229 1.124h-0.97l1.13-4.876zM51 15.269l-0.384-2.047-0.383 2.047h0.767zM53.203 12.082h0.718l1.374 2.782v-2.782h0.851v4.876h-0.683l-1.383-2.904v2.904h-0.88l0.002-4.876zM58.14 15.099l-1.142-3.010h0.962l0.697 1.934 0.654-1.934h0.942l-1.128 3.010v1.86h-0.984v-1.86zM33.84 19.091v0.255h-0.837v1.982h-0.351v-1.982h-0.841v-0.255h2.029zM36.464 21.327h-0.271c-0.002 0-0.005 0-0.008 0-0.026 0-0.049-0.008-0.069-0.022l0 0c-0.020-0.012-0.035-0.030-0.044-0.051l-0-0.001-0.242-0.531h-1.161l-0.242 0.531c-0.008 0.024-0.021 0.044-0.037 0.060l-0 0c-0.020 0.013-0.044 0.021-0.070 0.021-0.002 0-0.004-0-0.007-0h-0.27l1.026-2.236h0.356l1.038 2.228zM34.765 20.497h0.968l-0.411-0.91c-0.026-0.057-0.052-0.127-0.073-0.199l-0.003-0.012c-0.014 0.042-0.027 0.083-0.039 0.119l-0.037 0.094-0.406 0.909zM38.232 21.108c0.065 0.002 0.129 0.002 0.193 0 0.055-0.005 0.11-0.015 0.164-0.027 0.050-0.010 0.1-0.024 0.148-0.040 0.045-0.016 0.091-0.036 0.137-0.055v-0.503h-0.41c-0.001 0-0.002 0-0.003 0-0.020 0-0.038-0.007-0.053-0.018l0 0c-0.007-0.005-0.012-0.011-0.016-0.018l-0-0c-0.003-0.006-0.005-0.013-0.005-0.020 0-0.001 0-0.001 0-0.002v0-0.172h0.796v0.857c-0.124 0.078-0.268 0.14-0.422 0.18l-0.011 0.002c-0.085 0.022-0.17 0.037-0.257 0.047-0.088 0.009-0.19 0.014-0.294 0.014-0.002 0-0.004 0-0.006 0h0c-0.004 0-0.008 0-0.013 0-0.18 0-0.354-0.031-0.515-0.087l0.011 0.003c-0.158-0.055-0.295-0.134-0.412-0.235l0.002 0.001c-0.11-0.097-0.199-0.215-0.262-0.348l-0.003-0.007c-0.060-0.132-0.094-0.287-0.094-0.449 0-0.005 0-0.010 0-0.015v0.001c-0-0.004-0-0.009-0-0.014 0-0.164 0.034-0.32 0.095-0.461l-0.003 0.008c0.059-0.132 0.149-0.253 0.264-0.354 0.117-0.101 0.257-0.179 0.411-0.232 0.175-0.057 0.362-0.086 0.549-0.083 0.095 0 0.191 0.006 0.285 0.019 0.083 0.012 0.165 0.030 0.244 0.057 0.072 0.023 0.141 0.053 0.205 0.088 0.063 0.035 0.123 0.074 0.179 0.117l-0.098 0.138c-0.008 0.013-0.020 0.023-0.033 0.030l-0 0c-0.014 0.007-0.030 0.012-0.047 0.012h-0c-0.023-0.001-0.045-0.007-0.064-0.018l0.001 0c-0.042-0.020-0.075-0.037-0.107-0.056l0.006 0.003c-0.038-0.021-0.084-0.042-0.131-0.058l-0.006-0.002c-0.052-0.019-0.116-0.036-0.181-0.048l-0.008-0.001c-0.074-0.012-0.16-0.019-0.247-0.019-0.005 0-0.010 0-0.014 0h0.001c-0.004-0-0.008-0-0.012-0-0.137 0-0.269 0.023-0.392 0.065l0.009-0.003c-0.114 0.039-0.217 0.1-0.302 0.177-0.081 0.076-0.146 0.169-0.188 0.273l-0.002 0.005c-0.044 0.111-0.069 0.239-0.069 0.373s0.025 0.262 0.071 0.38l-0.002-0.007c0.045 0.106 0.115 0.201 0.205 0.282 0.084 0.077 0.186 0.137 0.299 0.177 0.13 0.039 0.269 0.054 0.406 0.044zM41.501 21.072h1.12v0.255h-1.462v-2.236h0.35l-0.008 1.982zM43.786 21.327h-0.35v-2.236h0.35v2.236zM45.090 19.101c0.021 0.010 0.039 0.024 0.054 0.041l0 0 1.499 1.686c-0.001-0.012-0.002-0.026-0.002-0.040s0.001-0.028 0.002-0.042l-0 0.002v-1.666h0.306v2.246h-0.176c-0.003 0-0.007 0-0.011 0-0.023 0-0.046-0.005-0.066-0.014l0.001 0c-0.021-0.011-0.039-0.025-0.055-0.042l-0-0-1.497-1.685v1.739h-0.293v-2.236h0.182c0.020 0 0.040 0.004 0.057 0.010zM49.531 19.091v0.246h-1.243v0.738h1.007v0.237h-1.007v0.763h1.243v0.246h-1.604v-2.23h1.604zM12.777 5.278l15.574 3.818v13.378l-15.574-3.816v-13.381zM11.778 4.138v15.17l17.57 4.308v-15.169l-17.57-4.31z"></path>
<path d="M21.195 30.66l-17.572-4.313v-15.169l17.572 4.31v15.17z"></path>
<path d="M12.069 5.107l15.371 3.77-6.537 5.645-15.373-3.772 6.539-5.643zM11.778 4.138l-8.155 7.040 17.572 4.311 8.153-7.041-17.57-4.31zM22.183 29.806l7.165-6.187-7.165-1.758v7.946z"></path>
</svg>
