<!-- Generated by IcoMoon.io -->
<svg version="1.1" xmlns="http://www.w3.org/2000/svg" width="64" height="32" viewBox="0 0 64 32">
<title>Logo4</title>
<path d="M14.579 12.794h-0.002c-1.448 0-2.622 1.043-2.622 2.329v0.002c0 1.287 1.174 2.33 2.622 2.33h0.002c1.448 0 2.622-1.043 2.622-2.33v-0.001c0-1.287-1.174-2.331-2.622-2.331zM33.929 12.049c-0.004-1.787-0.805-3.5-2.227-4.764s-3.349-1.976-5.36-1.98c-2.012 0.003-3.94 0.715-5.363 1.979s-2.223 2.977-2.228 4.765v9.856s15.175-1.502 15.177-9.854v-0.002zM6.641 25.139c0.004 1.244 0.561 2.436 1.551 3.315s2.33 1.375 3.729 1.379c1.399-0.004 2.739-0.499 3.729-1.378s1.547-2.070 1.55-3.314v-6.858s-10.559 1.046-10.559 6.856zM11.921 26.367c-0.274 0-0.54-0.072-0.768-0.207-0.221-0.13-0.396-0.318-0.506-0.544l-0.003-0.008c-0.066-0.137-0.105-0.299-0.105-0.469 0-0.085 0.010-0.168 0.028-0.247l-0.001 0.007c0.053-0.238 0.185-0.458 0.378-0.629s0.44-0.289 0.708-0.336c0.081-0.015 0.175-0.024 0.27-0.024 0.19 0 0.371 0.034 0.539 0.097l-0.011-0.003c0.253 0.093 0.469 0.251 0.621 0.453s0.233 0.44 0.233 0.682c0 0.001 0 0.002 0 0.003 0 0.17-0.038 0.332-0.107 0.476l0.003-0.007c-0.075 0.157-0.175 0.29-0.298 0.399l-0.001 0.001c-0.128 0.115-0.281 0.205-0.449 0.268-0.157 0.059-0.338 0.094-0.528 0.094-0.001 0-0.002 0-0.003 0h0v-0.005zM21.573 24.168v2.576h-0.531v-2.576h0.531zM22.599 25.269v0.414h-1.171v-0.414h1.171zM22.723 24.168v0.416h-1.295v-0.416h1.295zM25.146 25.396v0.122c0 0.196-0.027 0.371-0.080 0.527-0.051 0.154-0.128 0.286-0.226 0.399l0.001-0.001c-0.097 0.109-0.212 0.191-0.347 0.249-0.126 0.055-0.274 0.086-0.428 0.086-0.005 0-0.011-0-0.016-0h0.001c-0.162 0-0.31-0.028-0.444-0.086-0.136-0.060-0.252-0.144-0.346-0.248l-0.001-0.001c-0.098-0.112-0.176-0.245-0.226-0.39l-0.002-0.008c-0.051-0.15-0.080-0.324-0.080-0.504 0-0.008 0-0.016 0-0.024v0.001-0.123c0-0.197 0.027-0.373 0.080-0.527s0.128-0.288 0.225-0.398c0.098-0.109 0.214-0.193 0.347-0.251 0.135-0.057 0.283-0.086 0.444-0.086 0.163 0 0.31 0.029 0.444 0.086 0.135 0.058 0.25 0.142 0.347 0.251 0.098 0.11 0.174 0.243 0.226 0.398 0.054 0.154 0.081 0.33 0.081 0.527zM24.61 25.518v-0.126c0-0.137-0.012-0.257-0.037-0.361-0.022-0.099-0.060-0.187-0.112-0.265l0.002 0.003c-0.045-0.067-0.104-0.121-0.174-0.158l-0.003-0.001c-0.067-0.035-0.146-0.055-0.229-0.055-0.003 0-0.006 0-0.009 0h0c-0.090 0-0.169 0.018-0.239 0.054-0.072 0.039-0.131 0.093-0.174 0.158l-0.001 0.002c-0.048 0.075-0.086 0.163-0.106 0.257l-0.001 0.005c-0.024 0.102-0.038 0.22-0.038 0.341 0 0.007 0 0.014 0 0.021v-0.001 0.126c0 0.135 0.012 0.255 0.037 0.36 0.024 0.104 0.061 0.192 0.109 0.264 0.048 0.071 0.107 0.124 0.177 0.161s0.149 0.054 0.239 0.054c0.089 0 0.169-0.018 0.238-0.054 0.072-0.039 0.131-0.094 0.174-0.159l0.001-0.002c0.047-0.072 0.083-0.16 0.108-0.264s0.037-0.225 0.037-0.36zM26.869 26.070c0-0.002 0-0.004 0-0.005 0-0.042-0.008-0.083-0.022-0.121l0.001 0.002c-0.016-0.042-0.041-0.076-0.074-0.102l-0-0c-0.044-0.036-0.095-0.068-0.149-0.092l-0.004-0.002c-0.069-0.032-0.154-0.065-0.241-0.092l-0.015-0.004c-0.136-0.043-0.246-0.086-0.353-0.135l0.020 0.008c-0.105-0.048-0.196-0.103-0.279-0.167l0.003 0.002c-0.076-0.061-0.138-0.134-0.185-0.217l-0.002-0.004c-0.043-0.081-0.068-0.177-0.068-0.279 0-0.005 0-0.009 0-0.014v0.001c0-0.107 0.024-0.205 0.071-0.292 0.047-0.089 0.113-0.164 0.198-0.226 0.085-0.064 0.185-0.113 0.301-0.147 0.117-0.034 0.245-0.051 0.384-0.051 0.19 0 0.356 0.034 0.497 0.103s0.251 0.162 0.329 0.281c0.079 0.12 0.119 0.255 0.119 0.409h-0.527c0-0.002 0-0.005 0-0.008 0-0.070-0.018-0.135-0.049-0.192l0.001 0.002c-0.032-0.059-0.081-0.106-0.139-0.136l-0.002-0.001c-0.064-0.031-0.138-0.049-0.217-0.049-0.007 0-0.014 0-0.021 0l0.001-0c-0.005-0-0.011-0-0.018-0-0.076 0-0.149 0.016-0.215 0.044l0.004-0.001c-0.057 0.023-0.104 0.062-0.138 0.11l-0.001 0.001c-0.029 0.043-0.046 0.095-0.046 0.152 0 0.001 0 0.003 0 0.004v-0c0 0.043 0.011 0.083 0.032 0.119 0.027 0.039 0.060 0.072 0.098 0.098l0.001 0.001c0.043 0.031 0.097 0.060 0.161 0.087s0.138 0.054 0.222 0.080c0.14 0.042 0.263 0.091 0.369 0.143 0.103 0.050 0.191 0.109 0.27 0.18l-0.001-0.001c0.072 0.066 0.127 0.141 0.163 0.225s0.054 0.179 0.054 0.285c0 0.007 0 0.016 0 0.025 0 0.205-0.1 0.387-0.254 0.499l-0.002 0.001c-0.082 0.062-0.181 0.108-0.295 0.139s-0.241 0.048-0.383 0.048c-0.134-0-0.264-0.018-0.387-0.053l0.010 0.002c-0.129-0.035-0.241-0.088-0.342-0.156l0.004 0.003c-0.099-0.068-0.18-0.156-0.238-0.258l-0.002-0.004c-0.060-0.106-0.091-0.232-0.091-0.377h0.533c0 0.080 0.012 0.148 0.037 0.203 0.024 0.054 0.059 0.099 0.103 0.134l0.001 0.001c0.046 0.034 0.101 0.060 0.16 0.074l0.003 0.001c0.063 0.015 0.133 0.023 0.209 0.023 0.005 0 0.012 0 0.018 0 0.075 0 0.146-0.015 0.212-0.041l-0.004 0.001c0.105-0.042 0.177-0.143 0.177-0.26 0-0.001 0-0.002-0-0.003v0zM28.912 24.168v2.576h-0.528v-2.576h0.528zM29.704 24.168v0.416h-2.101v-0.416h2.101zM31.735 26.329v0.414h-1.371v-0.414h1.371zM30.538 24.168v2.576h-0.531v-2.576h0.531zM31.556 25.217v0.403h-1.192v-0.403h1.192zM31.733 24.168v0.416h-1.369v-0.416h1.369zM32.045 24.168h0.96c0.197 0 0.367 0.030 0.508 0.089s0.252 0.146 0.328 0.261c0.077 0.116 0.115 0.258 0.115 0.427 0 0.138-0.023 0.256-0.070 0.355s-0.113 0.181-0.195 0.245l-0.002 0.001c-0.084 0.065-0.182 0.118-0.288 0.154l-0.007 0.002-0.168 0.089h-0.835l-0.004-0.414h0.621c0.005 0 0.011 0 0.017 0 0.078 0 0.152-0.018 0.217-0.051l-0.003 0.001c0.059-0.031 0.107-0.078 0.137-0.136l0.001-0.002c0.030-0.057 0.048-0.124 0.048-0.196 0-0.003-0-0.007-0-0.010v0c0-0.004 0-0.008 0-0.012 0-0.073-0.017-0.143-0.047-0.205l0.001 0.003c-0.031-0.060-0.079-0.108-0.138-0.137l-0.002-0.001c-0.064-0.031-0.139-0.049-0.219-0.049-0.006 0-0.012 0-0.018 0l0.001-0h-0.429v2.16h-0.531v-2.576zM33.485 26.744l-0.587-1.148 0.561-0.004 0.594 1.127v0.024h-0.568zM36.27 25.826h-0.656v-0.414h0.656c0.006 0 0.014 0 0.021 0 0.082 0 0.16-0.018 0.23-0.051l-0.003 0.001c0.061-0.031 0.109-0.080 0.139-0.139l0.001-0.002c0.028-0.061 0.044-0.133 0.044-0.209s-0.016-0.147-0.045-0.212l0.001 0.003c-0.030-0.067-0.078-0.122-0.139-0.159l-0.002-0.001c-0.066-0.038-0.144-0.061-0.228-0.061-0.007 0-0.014 0-0.020 0l0.001-0h-0.472v2.16h-0.531v-2.576h1.003c0.202 0 0.374 0.036 0.518 0.11 0.145 0.072 0.256 0.171 0.333 0.299s0.115 0.273 0.115 0.437c0 0.166-0.038 0.31-0.115 0.432-0.077 0.121-0.187 0.215-0.332 0.281s-0.317 0.099-0.519 0.099zM39.33 26.329v0.414h-1.371v-0.414h1.371zM38.133 24.168v2.576h-0.531v-2.576h0.531zM39.152 25.217v0.403h-1.192v-0.403h1.192zM39.329 24.168v0.416h-1.369v-0.416h1.369zM40.827 24.168v2.576h-0.529v-2.576h0.529zM41.619 24.168v0.416h-2.101v-0.416h2.101zM43.65 26.329v0.414h-1.371v-0.414h1.371zM42.453 24.168v2.576h-0.531v-2.576h0.531zM43.472 25.217v0.403h-1.192v-0.403h1.192zM43.649 24.168v0.416h-1.369v-0.416h1.369zM43.96 24.168h0.961c0.197 0 0.367 0.030 0.507 0.089 0.143 0.059 0.253 0.146 0.33 0.261s0.115 0.258 0.115 0.427c0 0.138-0.024 0.256-0.071 0.355s-0.113 0.181-0.195 0.245l-0.002 0.001c-0.085 0.065-0.183 0.118-0.289 0.154l-0.007 0.002-0.168 0.089h-0.835l-0.003-0.414h0.621c0.005 0 0.011 0 0.018 0 0.078 0 0.152-0.018 0.217-0.051l-0.003 0.001c0.059-0.031 0.106-0.078 0.137-0.136l0.001-0.002c0.030-0.057 0.048-0.125 0.048-0.197 0-0.003-0-0.006-0-0.009v0c0-0.003 0-0.007 0-0.011 0-0.074-0.017-0.144-0.048-0.206l0.001 0.003c-0.031-0.060-0.079-0.107-0.138-0.137l-0.002-0.001c-0.064-0.031-0.139-0.049-0.219-0.049-0.006 0-0.012 0-0.018 0l0.001-0h-0.43v2.16h-0.531v-2.576zM45.4 26.744l-0.587-1.148 0.562-0.004 0.593 1.127v0.024h-0.568zM47.621 26.070c0-0.002 0-0.004 0-0.005 0-0.042-0.008-0.083-0.022-0.121l0.001 0.002c-0.016-0.041-0.041-0.076-0.074-0.102l-0-0c-0.044-0.036-0.095-0.068-0.15-0.092l-0.004-0.002c-0.069-0.032-0.154-0.065-0.241-0.092l-0.015-0.004c-0.136-0.044-0.246-0.086-0.352-0.135l0.020 0.008c-0.106-0.048-0.196-0.103-0.28-0.167l0.003 0.002c-0.076-0.061-0.138-0.134-0.185-0.217l-0.002-0.004c-0.043-0.081-0.068-0.177-0.068-0.279 0-0.005 0-0.009 0-0.014v0.001c0-0.107 0.024-0.205 0.071-0.292 0.048-0.089 0.114-0.164 0.199-0.226 0.085-0.064 0.185-0.113 0.301-0.147s0.245-0.051 0.383-0.051c0.19 0 0.356 0.034 0.497 0.103 0.142 0.068 0.251 0.162 0.329 0.281 0.079 0.12 0.119 0.255 0.119 0.409h-0.527c0-0.002 0-0.005 0-0.008 0-0.070-0.018-0.135-0.049-0.192l0.001 0.002c-0.032-0.059-0.081-0.106-0.139-0.136l-0.002-0.001c-0.064-0.031-0.138-0.049-0.217-0.049-0.007 0-0.014 0-0.020 0l0.001-0c-0.005-0-0.012-0-0.018-0-0.076 0-0.149 0.016-0.215 0.044l0.004-0.001c-0.057 0.023-0.104 0.062-0.138 0.11l-0.001 0.001c-0.029 0.043-0.046 0.095-0.046 0.152 0 0.001 0 0.003 0 0.004v-0c0 0.043 0.011 0.083 0.032 0.119 0.027 0.039 0.060 0.072 0.098 0.098l0.001 0.001c0.043 0.031 0.097 0.060 0.161 0.087s0.137 0.054 0.221 0.080c0.14 0.042 0.263 0.091 0.37 0.143 0.103 0.050 0.191 0.109 0.27 0.18l-0.001-0.001c0.072 0.066 0.127 0.141 0.163 0.225s0.054 0.179 0.054 0.285c0 0.112-0.021 0.212-0.065 0.301s-0.107 0.163-0.189 0.225c-0.083 0.062-0.181 0.108-0.296 0.139s-0.242 0.048-0.383 0.048c-0.127 0-0.254-0.017-0.377-0.050-0.129-0.035-0.241-0.088-0.342-0.156l0.004 0.003c-0.099-0.068-0.18-0.156-0.238-0.258l-0.002-0.004c-0.060-0.106-0.091-0.232-0.091-0.377h0.533c0 0.080 0.012 0.148 0.037 0.203 0.024 0.054 0.059 0.099 0.103 0.134l0.001 0.001c0.046 0.034 0.101 0.060 0.16 0.074l0.003 0.001c0.064 0.015 0.133 0.023 0.209 0.023 0.005 0 0.012 0 0.018 0 0.075 0 0.146-0.015 0.212-0.041l-0.004 0.001c0.105-0.042 0.177-0.143 0.177-0.26 0-0.001 0-0.002-0-0.003v0z"></path>
</svg>
