<!-- Generated by IcoMoon.io -->
<svg version="1.1" xmlns="http://www.w3.org/2000/svg" width="64" height="32" viewBox="0 0 64 32">
<title>Logo3</title>
<path d="M21.981 29.698c0.020 0.001 0.038 0.008 0.051 0.021l-0-0 0.132 0.126c-0.103 0.102-0.229 0.184-0.371 0.239-0.166 0.060-0.345 0.090-0.525 0.086-0.169 0.003-0.337-0.024-0.493-0.080-0.144-0.052-0.268-0.129-0.373-0.226l0.001 0.001c-0.102-0.096-0.183-0.212-0.238-0.342l-0.003-0.007c-0.054-0.129-0.085-0.278-0.085-0.435 0-0.004 0-0.009 0-0.013v0.001c-0-0.007-0-0.015-0-0.023 0-0.307 0.133-0.583 0.345-0.774l0.001-0.001c0.113-0.098 0.248-0.176 0.395-0.227 0.162-0.054 0.335-0.082 0.509-0.080 0.009-0 0.020-0 0.031-0 0.158 0 0.309 0.027 0.45 0.076l-0.010-0.003c0.13 0.049 0.251 0.118 0.354 0.202l-0.11 0.134c-0.008 0.010-0.017 0.018-0.027 0.024l-0 0c-0.011 0.007-0.024 0.011-0.038 0.011-0.002 0-0.004-0-0.007-0l0 0c-0.018-0.001-0.034-0.006-0.049-0.014l0.001 0-0.059-0.036-0.083-0.045c-0.075-0.037-0.163-0.065-0.254-0.080l-0.005-0.001c-0.055-0.009-0.118-0.015-0.182-0.015-0.005 0-0.010 0-0.015 0h0.001c-0.004-0-0.008-0-0.012-0-0.127 0-0.248 0.022-0.361 0.063l0.007-0.002c-0.109 0.038-0.206 0.095-0.286 0.169-0.082 0.077-0.145 0.169-0.187 0.269-0.042 0.101-0.067 0.219-0.067 0.342 0 0.004 0 0.009 0 0.013v-0.001c-0.002 0.123 0.021 0.245 0.067 0.36 0.044 0.105 0.106 0.194 0.183 0.267l0 0c0.075 0.072 0.169 0.13 0.273 0.166 0.107 0.039 0.223 0.058 0.339 0.057 0.067 0.001 0.135-0.003 0.201-0.011 0.168-0.017 0.317-0.084 0.436-0.186l-0.001 0.001c0.017-0.014 0.038-0.022 0.062-0.023h0zM25.784 29.066c0.002 0.152-0.028 0.303-0.089 0.446-0.058 0.136-0.142 0.252-0.247 0.345l-0.001 0.001c-0.109 0.097-0.239 0.174-0.381 0.224l-0.008 0.002c-0.149 0.051-0.322 0.080-0.501 0.080s-0.351-0.029-0.512-0.083l0.011 0.003c-0.149-0.053-0.278-0.13-0.388-0.228l0.001 0.001c-0.105-0.095-0.19-0.212-0.248-0.343l-0.003-0.006c-0.056-0.132-0.089-0.285-0.089-0.446s0.033-0.314 0.092-0.453l-0.003 0.008c0.056-0.13 0.141-0.249 0.251-0.35 0.11-0.096 0.241-0.17 0.386-0.219 0.149-0.052 0.321-0.082 0.501-0.082s0.351 0.030 0.512 0.085l-0.011-0.003c0.146 0.051 0.278 0.129 0.388 0.227 0.109 0.1 0.193 0.217 0.249 0.345 0.061 0.144 0.091 0.295 0.089 0.448zM25.438 29.066c0-0.005 0-0.011 0-0.018 0-0.122-0.023-0.239-0.065-0.346l0.002 0.006c-0.080-0.206-0.244-0.365-0.449-0.435l-0.005-0.002c-0.109-0.037-0.234-0.059-0.364-0.059s-0.255 0.021-0.372 0.061l0.008-0.002c-0.108 0.038-0.201 0.096-0.279 0.169l0-0c-0.077 0.073-0.137 0.162-0.176 0.263l-0.002 0.005c-0.040 0.106-0.063 0.229-0.063 0.357s0.023 0.251 0.065 0.365l-0.002-0.007c0.080 0.206 0.245 0.364 0.451 0.433l0.005 0.002c0.234 0.077 0.493 0.077 0.728 0 0.106-0.037 0.201-0.094 0.278-0.167 0.079-0.078 0.139-0.169 0.176-0.267 0.045-0.115 0.065-0.236 0.063-0.357zM28.378 29.441l0.035 0.080c0.013-0.028 0.024-0.054 0.037-0.080 0.013-0.027 0.027-0.053 0.043-0.078l0.841-1.329c0.017-0.023 0.031-0.037 0.048-0.042s0.037-0.008 0.058-0.008c0.004 0 0.008 0 0.011 0l-0.001-0h0.249v2.162h-0.295v-1.657c-0.001-0.011-0.001-0.024-0.001-0.037s0-0.026 0.001-0.039l-0 0.002-0.847 1.348c-0.012 0.021-0.029 0.038-0.049 0.049l-0.001 0c-0.020 0.011-0.045 0.018-0.071 0.018-0.001 0-0.001 0-0.002 0h-0.048c-0.001 0-0.001 0-0.002 0-0.026 0-0.050-0.007-0.071-0.018l0.001 0c-0.021-0.011-0.038-0.028-0.049-0.048l-0-0.001-0.871-1.356v1.735h-0.284v-2.157h0.248c0.003-0 0.007-0 0.011-0 0.021 0 0.041 0.003 0.060 0.008l-0.002-0c0.021 0.009 0.036 0.024 0.046 0.042l0.859 1.33c0.017 0.024 0.031 0.050 0.043 0.077zM31.544 29.334v0.809h-0.328v-2.158h0.734c0.139-0.002 0.277 0.014 0.41 0.047 0.106 0.027 0.205 0.072 0.29 0.135 0.070 0.056 0.126 0.127 0.163 0.208l0.001 0.003c0.039 0.088 0.058 0.182 0.056 0.277 0 0.004 0 0.009 0 0.014 0 0.195-0.093 0.368-0.237 0.477l-0.002 0.001c-0.085 0.065-0.184 0.113-0.292 0.143-0.111 0.032-0.238 0.050-0.369 0.050-0.010 0-0.019-0-0.029-0l0.001 0-0.398-0.006zM31.544 29.102h0.398c0.086 0.001 0.173-0.010 0.255-0.033 0.071-0.021 0.132-0.053 0.185-0.094l-0.001 0.001c0.093-0.077 0.151-0.191 0.151-0.32 0-0.002 0-0.004-0-0.005v0c0-0.007 0.001-0.015 0.001-0.023 0-0.055-0.012-0.108-0.034-0.155l0.001 0.002c-0.028-0.059-0.066-0.108-0.114-0.147l-0.001-0.001c-0.11-0.074-0.245-0.118-0.391-0.118-0.018 0-0.036 0.001-0.054 0.002l0.002-0h-0.398v0.889zM35.969 30.146h-0.26c-0.001 0-0.003 0-0.004 0-0.025 0-0.049-0.008-0.069-0.021l0 0c-0.018-0.013-0.033-0.030-0.043-0.049l-0-0.001-0.223-0.522h-1.125l-0.232 0.522c-0.020 0.042-0.062 0.070-0.111 0.070-0.001 0-0.002-0-0.004-0h-0.261l0.988-2.162h0.342l1.001 2.162zM34.338 29.343h0.929l-0.392-0.879c-0.030-0.066-0.054-0.134-0.074-0.203l-0.038 0.113c-0.011 0.034-0.024 0.066-0.036 0.092l-0.388 0.878zM37.391 27.995c0.019 0.009 0.036 0.022 0.050 0.039l1.44 1.629v-1.678h0.295v2.162h-0.164c-0.001 0-0.002 0-0.004 0-0.023 0-0.045-0.005-0.065-0.014l0.001 0c-0.020-0.010-0.038-0.024-0.052-0.040l-0-0-1.439-1.628c0.001 0.011 0.001 0.024 0.001 0.037s-0 0.026-0.001 0.039l0-0.002v1.607h-0.295v-2.162h0.175c0.001 0 0.001 0 0.002 0 0.021 0 0.040 0.004 0.058 0.011l-0.001-0zM41.602 29.287v0.858h-0.329v-0.858l-0.91-1.302h0.295c0.002-0 0.005-0 0.007-0 0.023 0 0.045 0.007 0.064 0.019l-0-0c0.018 0.015 0.033 0.031 0.045 0.049l0.569 0.84c0.039 0.055 0.073 0.119 0.098 0.186l0.002 0.006 0.043-0.093c0.016-0.034 0.034-0.067 0.056-0.099l0.562-0.845c0.012-0.017 0.026-0.033 0.042-0.046l0-0c0.018-0.013 0.041-0.021 0.065-0.021 0.002 0 0.004 0 0.006 0h0.298l-0.912 1.307zM28.215 24.358c0.144 0.016 0.289 0.028 0.435 0.040 2.222-0.863 4.1-2.276 5.403-4.062s1.969-3.866 1.918-5.98l-2.448-2.127c0.498 2.25 0.264 4.577-0.673 6.719s-2.542 4.015-4.635 5.41z"></path>
<path d="M27.341 24.26l0.066 0.011c2.236-1.39 3.941-3.33 4.894-5.571s1.111-4.679 0.453-6.998l-3.487-3.029c1.41 2.49 1.978 5.277 1.636 8.036-0.341 2.759-1.576 5.377-3.562 7.55zM39.166 16.854c-0.592 2.322-2.031 4.417-4.102 5.973-0.566 0.43-1.204 0.834-1.877 1.181l-0.073 0.034c1.687-0.43 3.237-1.192 4.531-2.226s2.299-2.312 2.934-3.736l-1.414-1.227z"></path>
<path d="M38.611 16.511l-2.014-1.749c-0.039 1.994-0.691 3.943-1.89 5.644s-2.901 3.093-4.927 4.029h0.010c0.452 0 0.903-0.024 1.351-0.070 1.895-0.672 3.568-1.741 4.871-3.111s2.195-3 2.597-4.743zM27.632 7.395l-2.402-2.090c-2.147 0.721-3.993 1.988-5.298 3.636s-2.006 3.6-2.012 5.599c0.008 2.21 0.864 4.354 2.433 6.094 1.568 1.739 3.76 2.975 6.227 3.51 2.203-2.332 3.493-5.213 3.682-8.225s-0.732-5.998-2.63-8.525zM44.16 16.19c-0.008-2.622-1.211-5.134-3.345-6.988s-5.026-2.899-8.043-2.906c-1.395-0.002-2.777 0.222-4.077 0.659l14.705 12.776c0.479-1.041 0.759-2.258 0.761-3.541v-0z"></path>
</svg>
