<!-- Generated by IcoMoon.io -->
<svg version="1.1" xmlns="http://www.w3.org/2000/svg" width="31" height="32" viewBox="0 0 31 32">
<title>Reloj</title>
<path fill="#212121" d="M29.317 13.732c-0.001-7.585-6.152-13.733-13.738-13.732s-13.733 6.152-13.732 13.738c0.002 6.092 3.969 11.256 9.46 13.053l0.097 0.027c0.055 0.017 0.111 0.026 0.168 0.026 0.108 0 0.214-0.029 0.307-0.084 0.121-0.072 0.212-0.186 0.254-0.32l3.468-10.994c0.945-0.003 1.711-0.771 1.711-1.716 0-0.948-0.768-1.716-1.716-1.716-0.272 0-0.529 0.063-0.758 0.176l0.010-0.005-4.582-4.583c-0.103-0.099-0.243-0.16-0.397-0.16-0.316 0-0.572 0.256-0.572 0.572 0 0.154 0.061 0.295 0.161 0.398l-0-0 4.58 4.585c-0.108 0.216-0.172 0.471-0.172 0.741 0 0.54 0.254 1.020 0.649 1.329l0.004 0.003-3.305 10.476c-6.531-2.406-9.876-9.651-7.47-16.183s9.651-9.876 16.183-7.47c6.531 2.406 9.876 9.651 7.47 16.182-1.207 3.214-3.593 5.749-6.618 7.124l-0.079 0.032-0.357-1.682c-0.056-0.261-0.285-0.454-0.56-0.454-0.147 0-0.281 0.055-0.382 0.146l0.001-0-3.443 3.074c-0.118 0.105-0.192 0.258-0.192 0.428 0 0.254 0.166 0.47 0.395 0.544l0.004 0.001 4.396 1.403c0.052 0.018 0.113 0.028 0.176 0.028 0.316 0 0.572-0.256 0.572-0.572 0-0.042-0.005-0.084-0.013-0.124l0.001 0.004-0.351-1.65c4.961-2.131 8.372-6.975 8.372-12.615 0-0.010 0-0.021-0-0.031v0.002zM15.583 13.16c0.316 0 0.572 0.256 0.572 0.572s-0.256 0.572-0.572 0.572v0c-0.316 0-0.572-0.256-0.572-0.572s0.256-0.572 0.572-0.572v0zM17.468 26.499l1.96-1.748 0.541 2.549-2.501-0.8z"></path>
<path fill="#2196f3" d="M15.010 2.858v1.145c0 0.316 0.256 0.572 0.572 0.572s0.572-0.256 0.572-0.572v0-1.145c0-0.316-0.256-0.572-0.572-0.572s-0.572 0.256-0.572 0.572v0zM4.709 13.16c-0.316 0-0.572 0.256-0.572 0.572s0.256 0.572 0.572 0.572h1.145c0.316 0 0.572-0.256 0.572-0.572s-0.256-0.572-0.572-0.572h-1.145zM26.456 14.304c0.316 0 0.572-0.256 0.572-0.572s-0.256-0.572-0.572-0.572h-1.145c-0.316 0-0.572 0.256-0.572 0.572s0.256 0.572 0.572 0.572h1.145z"></path>
</svg>
